<svg id="Capa_1" data-name="Capa 1" xmlns="http://www.w3.org/2000/svg" viewBox="0 0 404.56 47.76"><defs><style>.cls-1{fill:#fff;}</style></defs><path class="cls-1" d="M41.85,28l13.8,40.44H50.07L45.75,55.71H31.41l-4.2,12.72h-5.4L35.55,28h6.3M32.49,51.63H44.67L40.71,40c-.9-2.64-1.5-5-2.1-7.38h-.12c-.6,2.4-1.26,4.86-2,7.32l-4,11.7M44,25H33.4l-.69,2L19,67.47l-1.35,4H29.38l.68-2.06,3.52-10.66h10L47.23,69.4l.69,2H59.84l-1.35-4L44.69,27,44,25ZM36.67,48.63,38.57,43l1.91,5.61Z" transform="translate(-17.62 -24.34)"/><path class="cls-1" d="M93.39,28V51.57c0,12.42-6.54,17.52-15.3,17.52-8.28,0-14.52-4.74-14.52-17.28V28h5.28V51.93c0,9.06,4,12.9,9.42,12.9,6,0,9.84-4,9.84-12.9V28h5.28m3-3H85.11V51.93c0,9.9-5,9.9-6.84,9.9-4.26,0-6.42-3.33-6.42-9.9V25H60.57V51.81c0,12.89,6.39,20.28,17.52,20.28,11.46,0,18.3-7.67,18.3-20.52V25Z" transform="translate(-17.62 -24.34)"/><path class="cls-1" d="M131.49,28v4.44H119.13v36h-5.28v-36h-12.3V28h29.94m3-3H98.55V35.43h12.3v36h11.28v-36h12.36V25Z" transform="translate(-17.62 -24.34)"/><path class="cls-1" d="M154.47,27.34c11,0,18.18,8.45,18.18,20.45,0,13.92-8.46,21.3-18.78,21.3-10.68,0-18.18-8.28-18.18-20.52,0-12.84,8-21.23,18.78-21.23m-.3,37.49c8.28,0,13-7.62,13-16.8,0-8-4.2-16.44-12.9-16.44s-13,8-13,16.86c0,8.64,4.68,16.38,12.9,16.38m.3-40.49c-12.82,0-21.78,10-21.78,24.23,0,13.85,8.71,23.52,21.18,23.52,10.84,0,21.78-7.51,21.78-24.3,0-13.81-8.71-23.45-21.18-23.45Zm-.3,37.49c-6.8,0-9.9-6.93-9.9-13.38s2.61-13.86,10-13.86c6.8,0,9.9,7,9.9,13.44,0,6.87-3.08,13.8-10,13.8Z" transform="translate(-17.62 -24.34)"/><path class="cls-1" d="M202.65,27.57a25,25,0,0,1,10.08,1.86l-1.26,4.26A21,21,0,0,0,202.53,32c-9.84,0-16.26,6.12-16.26,16.26s6.18,16.32,15.6,16.32c3.42,0,5.76-.48,7-1.08V51.39h-8.22v-4.2h13.32V66.63a37.67,37.67,0,0,1-12.42,2.22c-6.12,0-11.16-1.56-15.12-5.34-3.48-3.36-5.64-8.76-5.64-15.06.06-12.06,8.34-20.88,21.9-20.88m0-3c-14.82,0-24.83,9.6-24.9,23.87,0,6.93,2.39,13.21,6.56,17.23,4.36,4.17,10,6.18,17.2,6.18a40.44,40.44,0,0,0,13.43-2.39l2-.72V44.19H197.61v10.2h8.22v6.85a23.76,23.76,0,0,1-4,.29c-8,0-12.6-4.85-12.6-13.32,0-8.3,5-13.26,13.26-13.26a17.83,17.83,0,0,1,7.72,1.49l3.13,1.38,1-3.27,1.26-4.26.72-2.45L214,26.73a27.93,27.93,0,0,0-11.38-2.16Z" transform="translate(-17.62 -24.34)"/><path class="cls-1" d="M247.47,28v4.38H230.85V45.15h15.72v4.32H230.85V64.05h17.52v4.38H225.63V28h21.84m3-3H222.63V71.43h28.74V61.05H233.85V52.47h15.72V42.15H233.85V35.37h16.62V25Z" transform="translate(-17.62 -24.34)"/><path class="cls-1" d="M270.75,27.34a18.37,18.37,0,0,1,8.94,2l-1.44,4.25a16.11,16.11,0,0,0-7.68-1.92c-5.52,0-7.62,3.3-7.62,6.06,0,3.78,2.46,5.64,8,7.8,6.84,2.64,10.32,5.94,10.32,11.88,0,6.24-4.62,11.64-14.16,11.64-3.9,0-8.16-1.14-10.32-2.58l1.32-4.38a18.5,18.5,0,0,0,9.36,2.64c5.34,0,8.46-2.82,8.46-6.9,0-3.78-2.16-5.94-7.62-8-6.6-2.34-10.68-5.76-10.68-11.46,0-6.3,5.22-11,13.08-11m0-3c-9.32,0-16.08,5.87-16.08,14,0,9.76,9.47,13.15,12.64,14.28,5.24,2,5.66,3.5,5.66,5.22,0,3.52-3.82,3.9-5.46,3.9a15.56,15.56,0,0,1-7.79-2.19l-3.32-2-1.12,3.73L254,65.59l-.64,2.13L255.17,69c2.76,1.84,7.58,3.08,12,3.08,11.85,0,17.16-7.35,17.16-14.64,0-8.82-6.54-12.48-12.24-14.67s-6.12-3.42-6.12-5,1.21-3.06,4.62-3.06a13,13,0,0,1,6.24,1.56L280,37.92l1.14-3.38,1.44-4.26.79-2.35-2.15-1.22a21,21,0,0,0-10.42-2.37Z" transform="translate(-17.62 -24.34)"/><path class="cls-1" d="M317.49,28v4.44H305.13v36h-5.28v-36h-12.3V28h29.94m3-3H284.55V35.43h12.3v36h11.28v-36h12.36V25Z" transform="translate(-17.62 -24.34)"/><path class="cls-1" d="M330.93,28V68.43h-5.22V28h5.22m3-3H322.71V71.43h11.22V25Z" transform="translate(-17.62 -24.34)"/><path class="cls-1" d="M360.15,27.34c11,0,18.18,8.45,18.18,20.45,0,13.92-8.46,21.3-18.78,21.3-10.68,0-18.18-8.28-18.18-20.52,0-12.84,8-21.23,18.78-21.23m-.3,37.49c8.28,0,13-7.62,13-16.8,0-8-4.2-16.44-12.9-16.44s-13,8-13,16.86c0,8.64,4.68,16.38,12.9,16.38m.3-40.49c-12.82,0-21.78,10-21.78,24.23,0,13.85,8.71,23.52,21.18,23.52,10.84,0,21.78-7.51,21.78-24.3,0-13.81-8.71-23.45-21.18-23.45Zm-.3,37.49c-6.8,0-9.9-6.93-9.9-13.38s2.61-13.86,10-13.86c6.8,0,9.9,7,9.9,13.44,0,6.87-3.08,13.8-10,13.8Z" transform="translate(-17.62 -24.34)"/><path class="cls-1" d="M419.19,28V68.43h-5.28L401.07,47.91a128.36,128.36,0,0,1-7.56-13.5l-.18.06c.3,5.1.42,10,.42,16.68V68.43h-4.92V28h5.7l13,20.46a114.47,114.47,0,0,1,7.26,13.14l.12-.06c-.48-5.4-.6-10.32-.6-16.62V28h4.92m3-3H411.27V44.91c0,1.36,0,2.68,0,4-.41-.67-.83-1.35-1.27-2l-13-20.46-.88-1.4H385.83V71.43h10.92V51.15c0-1.62,0-3.13,0-4.56.56.94,1.16,1.91,1.8,2.92L411.36,70l.89,1.41h9.94V25Z" transform="translate(-17.62 -24.34)"/></svg>