<?xml version="1.0" encoding="utf-8"?>
<!-- Generator: Adobe Illustrator 25.2.3, SVG Export Plug-In . SVG Version: 6.00 Build 0)  -->
<svg version="1.1" id="Capa_1" xmlns="http://www.w3.org/2000/svg" xmlns:xlink="http://www.w3.org/1999/xlink" x="0px" y="0px"
	 viewBox="0 0 1297.93 497.57" style="enable-background:new 0 0 1297.93 497.57;" xml:space="preserve">
<style type="text/css">
	.st0{fill:#1D1D1B;}
	.st1{fill:#ea1b36;}
</style>
<g id="Capa_3">
</g>
<g id="Capa_2">
</g>
<path class="st1" d="M684.21,201.59h93.56c0,0,5.9,0.61,6.16,6.26c0.25,5.65,0.05,93.61,0.05,93.61s0.08,4.31-3.56,5.73
	c-2.92,1.14-6.24,0.89-8.65-0.34c-4.52-2.29-93.1-92.09-93.1-92.09s-2.52-3.41-0.61-8.6C679.3,202.78,681.56,201.75,684.21,201.59z"
	/>
<path class="st1" d="M989.1,219.24l-88.42,88.42c0,0-6.15,5.01-11.73-0.09s-88.52-88.42-88.52-88.42s-4.14-4-2.05-8.78
	c1.68-3.85,5.05-6.74,8.5-7.86c6.44-2.11,175.02-0.96,175.02-0.96s5.6,0.84,8.71,7.55C992.62,213.47,991.45,216.59,989.1,219.24z"/>
<path class="st1" d="M1074.04,291.07l88.42-88.42c0,0,6.15-5.01,11.73,0.09c5.58,5.1,88.52,88.42,88.52,88.42s4.14,4,2.05,8.78
	c-1.68,3.85-5.05,6.74-8.5,7.86c-6.44,2.11-175.02,0.96-175.02,0.96s-5.6-0.84-8.71-7.55
	C1070.51,296.83,1071.68,293.71,1074.04,291.07z"/>
<path class="st1" d="M263.07,291.07l88.42-88.42c0,0,6.15-5.01,11.73,0.09s88.52,88.42,88.52,88.42s4.14,4,2.05,8.78
	c-1.68,3.85-5.05,6.74-8.5,7.86c-6.44,2.11-175.02,0.96-175.02,0.96s-5.6-0.84-8.71-7.55C259.55,296.83,260.71,293.71,263.07,291.07
	z"/>
<path class="st1" d="M231.56,307.93H59.89c0,0-10.83-1.11-11.3-11.48c-0.47-10.37-0.09-171.76-0.09-171.76s-0.14-7.9,6.54-10.52
	c5.36-2.1,11.44-1.63,15.88,0.62c8.3,4.21,170.83,168.96,170.83,168.96s4.62,6.25,1.12,15.78
	C240.57,305.75,236.41,307.65,231.56,307.93z"/>
<path class="st1" d="M535.59,294.68l0-180.35c0,0,1.17-11.38,12.06-11.87s180.44-0.1,180.44-0.1s8.3-0.15,11.05,6.87
	c2.21,5.64,1.72,12.02-0.65,16.68c-4.42,8.72-177.5,179.46-177.5,179.46s-6.56,4.86-16.58,1.18
	C537.88,304.15,535.88,299.78,535.59,294.68z"/>
<path class="st1" d="M1053.84,212.88v169.27c0,0-1.1,10.68-11.32,11.14c-10.22,0.46-169.36,0.09-169.36,0.09s-7.79,0.14-10.37-6.45
	c-2.07-5.29-1.61-11.28,0.61-15.66c4.15-8.18,166.6-168.44,166.6-168.44s6.16-4.56,15.56-1.11
	C1051.69,203.99,1053.56,208.09,1053.84,212.88z"/>
<g>
	<path class="st1" d="M73.38,393.41c-3.62,0-6.81-0.81-9.57-2.42c-2.76-1.61-4.91-3.8-6.45-6.56v27.04H45.43v-65.15h10.41v8
		c1.78-2.7,4.03-4.83,6.76-6.38c2.73-1.55,5.84-2.33,9.34-2.33c3.14,0,6.04,0.62,8.68,1.85c2.64,1.23,4.94,2.95,6.9,5.15
		c1.96,2.2,3.48,4.72,4.58,7.57c1.1,2.85,1.65,5.91,1.65,9.2c0,4.46-0.88,8.51-2.62,12.15c-1.75,3.64-4.15,6.53-7.21,8.67
		C80.87,392.34,77.35,393.41,73.38,393.41z M69.37,383.27c1.84,0,3.5-0.38,4.98-1.13c1.48-0.76,2.77-1.79,3.87-3.1
		c1.1-1.31,1.93-2.79,2.49-4.45c0.56-1.66,0.85-3.39,0.85-5.2c0-1.92-0.31-3.7-0.93-5.33s-1.53-3.07-2.71-4.32
		c-1.19-1.25-2.57-2.23-4.14-2.92c-1.57-0.7-3.28-1.05-5.12-1.05c-1.13,0-2.27,0.19-3.43,0.56s-2.27,0.91-3.34,1.6
		c-1.07,0.69-2,1.5-2.8,2.43c-0.8,0.93-1.38,1.94-1.74,3.04v10.83c0.71,1.68,1.67,3.22,2.89,4.61c1.22,1.39,2.63,2.48,4.23,3.26
		C66.08,382.88,67.71,383.27,69.37,383.27z"/>
	<path class="st1" d="M129.62,356.21c-3.62,0-6.85,0.7-9.7,2.09c-2.85,1.4-4.9,3.4-6.14,6.01v28.21h-11.93v-46.19h10.95v9.52
		c1.66-3.2,3.77-5.73,6.32-7.56c2.55-1.84,5.25-2.85,8.1-3.03c0.65,0,1.16,0,1.51,0c0.36,0,0.65,0.03,0.89,0.09V356.21z"/>
	<path class="st1" d="M150.41,393.41c-3.8,0-7.21-0.63-10.23-1.89c-3.03-1.26-5.59-3.01-7.7-5.24c-2.11-2.23-3.72-4.78-4.85-7.66
		c-1.13-2.88-1.69-5.9-1.69-9.07c0-3.23,0.56-6.28,1.69-9.15c1.13-2.88,2.74-5.43,4.85-7.66c2.11-2.23,4.67-3.97,7.7-5.24
		c3.03-1.26,6.44-1.89,10.23-1.89c3.8,0,7.19,0.63,10.19,1.89c3,1.26,5.56,3.01,7.7,5.24c2.14,2.23,3.75,4.78,4.85,7.66
		c1.1,2.88,1.65,5.93,1.65,9.15c0,3.17-0.55,6.19-1.65,9.07c-1.1,2.88-2.7,5.43-4.81,7.66c-2.11,2.23-4.67,3.98-7.7,5.24
		C157.62,392.78,154.21,393.41,150.41,393.41z M138.22,369.56c0,2.68,0.53,5.05,1.6,7.12s2.52,3.68,4.36,4.85
		c1.84,1.16,3.92,1.75,6.23,1.75c2.25,0,4.3-0.6,6.14-1.79c1.84-1.19,3.31-2.82,4.41-4.89c1.1-2.07,1.65-4.44,1.65-7.12
		c0-2.62-0.55-4.98-1.65-7.07c-1.1-2.09-2.57-3.72-4.41-4.89c-1.84-1.16-3.89-1.75-6.14-1.75c-2.31,0-4.39,0.6-6.23,1.79
		c-1.84,1.19-3.29,2.82-4.36,4.89C138.75,364.51,138.22,366.88,138.22,369.56z"/>
	<path class="st1" d="M191.33,392.52l-17.18-46.19h12.37l11.75,35.44l11.84-35.44h11.3l-17.09,46.19H191.33z"/>
	<path class="st1" d="M229.31,339.39v-11.84h11.93v11.84H229.31z M229.31,392.52v-46.64h11.93v46.64H229.31z"/>
	<path class="st1" d="M293.92,392.52h-11.93v-25.79c0-3.68-0.65-6.37-1.96-8.07c-1.31-1.7-3.11-2.54-5.43-2.54
		c-1.6,0-3.22,0.41-4.85,1.22c-1.63,0.81-3.1,1.93-4.41,3.35c-1.31,1.42-2.26,3.06-2.85,4.91v26.93h-11.93v-46.19h10.77v8.62
		c1.19-1.99,2.7-3.68,4.54-5.06c1.84-1.38,3.96-2.43,6.36-3.17c2.4-0.73,4.94-1.1,7.61-1.1c2.91,0,5.3,0.51,7.16,1.54
		c1.87,1.03,3.29,2.41,4.27,4.14c0.98,1.73,1.66,3.68,2.05,5.85c0.39,2.17,0.58,4.37,0.58,6.6V392.52z"/>
	<path class="st1" d="M324.62,393.41c-3.8,0-7.21-0.63-10.23-1.89c-3.03-1.26-5.61-3.02-7.74-5.28s-3.78-4.83-4.94-7.7
		c-1.16-2.88-1.74-5.9-1.74-9.07c0-4.34,0.99-8.32,2.98-11.92c1.99-3.61,4.82-6.5,8.5-8.67c3.68-2.17,8.04-3.26,13.08-3.26
		c5.04,0,9.38,1.1,12.99,3.29c3.62,2.2,6.32,5.07,8.1,8.63l-11.66,3.56c-1.01-1.72-2.34-3.04-4-3.96c-1.66-0.92-3.5-1.38-5.52-1.38
		c-2.26,0-4.32,0.57-6.19,1.7s-3.34,2.74-4.41,4.8s-1.6,4.47-1.6,7.2c0,2.68,0.55,5.05,1.65,7.12c1.1,2.07,2.57,3.69,4.41,4.89
		c1.84,1.19,3.88,1.79,6.14,1.79c1.42,0,2.77-0.24,4.05-0.71c1.28-0.47,2.42-1.13,3.43-1.96c1.01-0.83,1.75-1.78,2.22-2.85
		l11.66,3.56c-1.07,2.31-2.63,4.39-4.67,6.23c-2.05,1.84-4.45,3.28-7.21,4.32S328.06,393.41,324.62,393.41z"/>
	<path class="st1" d="M351.68,339.39v-11.84h11.93v11.84H351.68z M351.68,392.52v-46.64h11.93v46.64H351.68z"/>
	<path class="st1" d="M373.74,378.9c0-2.99,0.85-5.61,2.54-7.87c1.69-2.26,4.05-4,7.08-5.23c3.03-1.23,6.5-1.85,10.41-1.85
		c1.96,0,3.95,0.15,5.96,0.44c2.02,0.3,3.77,0.77,5.25,1.42v-2.48c0-2.91-0.88-5.16-2.62-6.73c-1.75-1.57-4.35-2.36-7.79-2.36
		c-2.55,0-4.98,0.44-7.3,1.33c-2.31,0.89-4.75,2.2-7.3,3.92l-3.83-7.83c3.08-2.02,6.24-3.53,9.48-4.54
		c3.23-1.01,6.63-1.51,10.19-1.51c6.64,0,11.82,1.64,15.53,4.91c3.71,3.28,5.56,7.95,5.56,14.04v14.65c0,1.23,0.22,2.11,0.67,2.63
		c0.45,0.53,1.17,0.85,2.18,0.96v9.7c-1.07,0.18-2.03,0.33-2.89,0.44c-0.86,0.12-1.59,0.18-2.18,0.18c-2.37,0-4.17-0.53-5.38-1.6
		c-1.22-1.07-1.97-2.37-2.27-3.92l-0.27-2.4c-2.02,2.61-4.54,4.63-7.57,6.05c-3.03,1.42-6.11,2.14-9.26,2.14
		c-3.09,0-5.86-0.63-8.32-1.89c-2.46-1.26-4.39-2.99-5.79-5.19C374.44,384.14,373.74,381.66,373.74,378.9z M402.76,381.22
		c0.65-0.69,1.19-1.39,1.6-2.08c0.42-0.69,0.62-1.33,0.62-1.91v-4.6c-1.42-0.58-2.97-1.03-4.63-1.35c-1.66-0.32-3.23-0.48-4.72-0.48
		c-3.09,0-5.62,0.65-7.61,1.95c-1.99,1.3-2.98,3.02-2.98,5.16c0,1.16,0.33,2.26,0.98,3.3c0.65,1.04,1.6,1.88,2.85,2.52
		c1.25,0.64,2.73,0.95,4.45,0.95c1.78,0,3.53-0.33,5.25-1C400.3,383.03,401.69,382.21,402.76,381.22z"/>
</g>
<g>
	<path class="st1" d="M642.63,327.55h11.93v50.18c0,2.14,0.36,3.59,1.07,4.33c0.71,0.74,1.69,1.12,2.94,1.12
		c0.95,0,1.93-0.12,2.94-0.36c1.01-0.24,1.9-0.53,2.67-0.89l1.6,9.08c-1.6,0.77-3.47,1.37-5.61,1.78s-4.06,0.62-5.79,0.62
		c-3.74,0-6.63-1-8.68-2.99c-2.05-1.99-3.07-4.83-3.07-8.52V327.55z"/>
	<path class="st1" d="M661.72,378.9c0-2.99,0.85-5.61,2.54-7.87c1.69-2.26,4.05-4,7.08-5.23c3.03-1.23,6.5-1.85,10.41-1.85
		c1.96,0,3.95,0.15,5.96,0.44c2.02,0.3,3.77,0.77,5.25,1.42v-2.48c0-2.91-0.88-5.16-2.62-6.73c-1.75-1.57-4.35-2.36-7.79-2.36
		c-2.55,0-4.98,0.44-7.3,1.33c-2.31,0.89-4.75,2.2-7.3,3.92l-3.83-7.83c3.08-2.02,6.24-3.53,9.48-4.54
		c3.23-1.01,6.63-1.51,10.19-1.51c6.64,0,11.82,1.64,15.53,4.91c3.71,3.28,5.56,7.95,5.56,14.04v14.65c0,1.23,0.22,2.11,0.67,2.63
		c0.45,0.53,1.17,0.85,2.18,0.96v9.7c-1.07,0.18-2.03,0.33-2.89,0.44c-0.86,0.12-1.59,0.18-2.18,0.18c-2.37,0-4.17-0.53-5.38-1.6
		c-1.22-1.07-1.97-2.37-2.27-3.92l-0.27-2.4c-2.02,2.61-4.54,4.63-7.57,6.05c-3.03,1.42-6.11,2.14-9.26,2.14
		c-3.09,0-5.86-0.63-8.32-1.89c-2.46-1.26-4.39-2.99-5.79-5.19C662.42,384.14,661.72,381.66,661.72,378.9z M690.74,381.22
		c0.65-0.69,1.19-1.39,1.6-2.08c0.42-0.69,0.62-1.33,0.62-1.91v-4.6c-1.42-0.58-2.97-1.03-4.63-1.35c-1.66-0.32-3.23-0.48-4.72-0.48
		c-3.09,0-5.62,0.65-7.61,1.95c-1.99,1.3-2.98,3.02-2.98,5.16c0,1.16,0.33,2.26,0.98,3.3c0.65,1.04,1.6,1.88,2.85,2.52
		c1.25,0.64,2.73,0.95,4.45,0.95c1.78,0,3.53-0.33,5.25-1C688.27,383.03,689.67,382.21,690.74,381.22z"/>
	<path class="st1" d="M737.51,390.21c-1.01,0.42-2.22,0.89-3.65,1.42c-1.42,0.53-2.95,0.96-4.58,1.29
		c-1.63,0.33-3.28,0.49-4.94,0.49c-2.2,0-4.21-0.38-6.05-1.15c-1.84-0.76-3.31-1.98-4.41-3.66c-1.1-1.67-1.65-3.86-1.65-6.57V355.5
		h-6.14v-9.17h6.14V331.2h11.93v15.13h9.79v9.17h-9.79v22.49c0.06,1.58,0.5,2.72,1.33,3.42c0.83,0.7,1.87,1.05,3.11,1.05
		s2.46-0.21,3.65-0.62c1.19-0.41,2.14-0.77,2.85-1.07L737.51,390.21z"/>
	<path class="st1" d="M762.75,393.41c-3.74,0-7.12-0.63-10.15-1.89c-3.03-1.26-5.61-2.99-7.74-5.19s-3.78-4.72-4.94-7.57
		s-1.74-5.85-1.74-9.02c0-4.4,0.99-8.42,2.98-12.06c1.99-3.64,4.83-6.56,8.54-8.76c3.71-2.2,8.08-3.3,13.13-3.3
		c5.1,0,9.46,1.1,13.08,3.31c3.62,2.2,6.39,5.11,8.32,8.73c1.93,3.61,2.89,7.51,2.89,11.68c0,0.71-0.03,1.43-0.09,2.16
		c-0.06,0.73-0.12,1.34-0.18,1.81h-36.04c0.24,2.32,0.93,4.35,2.09,6.09c1.16,1.74,2.64,3.06,4.45,3.96
		c1.81,0.9,3.75,1.35,5.83,1.35c2.37,0,4.61-0.58,6.72-1.74c2.11-1.16,3.54-2.68,4.32-4.58l10.24,2.85
		c-1.13,2.37-2.75,4.48-4.85,6.32c-2.11,1.84-4.58,3.28-7.43,4.32C769.33,392.89,766.19,393.41,762.75,393.41z M750.55,365.74h24.39
		c-0.24-2.32-0.91-4.33-2-6.04c-1.1-1.71-2.54-3.04-4.32-4c-1.78-0.96-3.77-1.44-5.96-1.44c-2.14,0-4.08,0.48-5.83,1.44
		c-1.75,0.96-3.17,2.29-4.27,4C751.46,361.4,750.79,363.42,750.55,365.74z"/>
</g>
<g>
	<path class="st1" d="M472.29,392.23c-2.97,0-4.27-0.63-6.76-1.89c-2.49-1.26-4.66-2.98-6.5-5.15c-1.84-2.17-3.25-4.72-4.23-7.66
		c-0.98-2.93-1.47-6.04-1.47-9.33c0-3.34,0.55-6.45,1.65-9.33c1.1-2.87,2.63-5.4,4.58-7.57c1.96-2.17,4.27-3.86,6.94-5.06
		c2.67-1.2,5.55-1.8,8.63-1.8c3.56,0,6.85,0.02,9.58,1.64c2.73,1.61,4.81,1.65,6.53,4.29v-5.21h10.41l0.37,58.84
		c-0.01,0.87,0.28,1.19,0.71,1.26l7.39,0.08l0.17,10.61c0,0-10.66,0.34-14.07-0.06c-4.37-0.89-6.19-4.78-6.5-10.44v-17.36
		C486.85,393.54,479.41,392.23,472.29,392.23z M478.16,382.08c1.72,0,3.28-0.32,4.67-0.95c1.39-0.64,2.67-1.52,3.83-2.65
		c1.16-1.13,2.18-2.41,3.07-3.86v-10.91c-0.3-1.28-0.85-2.46-1.65-3.56c-0.8-1.1-1.75-2.07-2.85-2.91c-1.1-0.84-2.27-1.49-3.52-1.96
		c-1.25-0.46-2.49-0.7-3.74-0.7c-1.84,0-3.52,0.38-5.03,1.13c-1.51,0.76-2.83,1.79-3.96,3.1c-1.13,1.31-1.99,2.79-2.58,4.45
		c-0.59,1.66-0.89,3.42-0.89,5.28c0,2.5,0.53,4.77,1.6,6.81c1.07,2.04,2.55,3.67,4.45,4.89
		C473.48,381.47,475.67,382.08,478.16,382.08z"/>
	<path class="st1" d="M507.61,374.07v-28.92h11.93v26.29c0,3.52,0.65,6.17,1.96,7.96c1.3,1.79,3.23,2.68,5.79,2.68
		c1.54,0,3.07-0.3,4.58-0.92c1.51-0.61,2.91-1.52,4.18-2.75c1.27-1.22,2.36-2.76,3.25-4.62v-28.65h11.93v32.89
		c0,1.23,0.22,2.11,0.67,2.64c0.44,0.53,1.17,0.85,2.18,0.97v9.7c-1.19,0.18-2.18,0.31-2.98,0.4c-0.8,0.09-1.53,0.13-2.18,0.13
		c-2.14,0-4.07,0.3-5.33-0.77c-0.37-0.32-2-2.99-2.24-4.69l-0.09-1.26c-2.08,3.12-4.13,4.22-7.39,5.83
		c-3.26,1.61-7.65,1.25-11.56,1.25c-4.81,0-8.46-1.54-10.95-4.63C508.85,384.51,507.61,380,507.61,374.07z"/>
	<path class="st1" d="M581.68,392.23c-3.74,0-7.12-0.63-10.15-1.89c-3.03-1.26-5.61-2.99-7.74-5.19s-3.78-4.72-4.94-7.57
		s-1.74-5.85-1.74-9.02c0-4.4,0.99-8.42,2.98-12.06c1.99-3.64,4.83-6.56,8.54-8.76c3.71-2.2,8.08-3.3,13.13-3.3
		c5.1,0,9.46,1.1,13.08,3.31c3.62,2.2,6.39,5.11,8.32,8.73c1.93,3.61,2.89,7.51,2.89,11.68c0,0.71-0.03,1.43-0.09,2.16
		c-0.06,0.73-0.12,1.34-0.18,1.81h-36.04c0.24,2.32,0.93,4.35,2.09,6.09c1.16,1.74,2.64,3.06,4.45,3.96
		c1.81,0.9,3.75,1.35,5.83,1.35c2.37,0,4.61-0.58,6.72-1.74c2.11-1.16,3.54-2.68,4.32-4.58l10.24,2.85
		c-1.13,2.37-2.75,4.48-4.85,6.32c-2.11,1.84-4.58,3.28-7.43,4.32C588.26,391.71,585.12,392.23,581.68,392.23z M569.49,364.55h24.39
		c-0.24-2.32-0.91-4.33-2-6.04c-1.1-1.71-2.54-3.04-4.32-4c-1.78-0.96-3.77-1.44-5.96-1.44c-2.14,0-4.08,0.48-5.83,1.44
		c-1.75,0.96-3.17,2.29-4.27,4C570.39,360.21,569.72,362.23,569.49,364.55z"/>
</g>
</svg>
