<?xml version="1.0" encoding="utf-8"?>
<!-- Generator: Adobe Illustrator 25.2.3, SVG Export Plug-In . SVG Version: 6.00 Build 0)  -->
<svg version="1.1" id="Capa_1" xmlns="http://www.w3.org/2000/svg" xmlns:xlink="http://www.w3.org/1999/xlink" x="0px" y="0px"
	 viewBox="0 0 1801.1 483.7" style="enable-background:new 0 0 1801.1 483.7;" xml:space="preserve">
<style type="text/css">
	.st0{fill:#FFFFFF;}
	.st1{enable-background:new    ;}
</style>
<g id="Capa_2_1_">
	<g id="Capa_1-2">
		<g>
			<path class="st0" d="M30,9.1h408.2c0,0,25.8,2.7,26.9,27.3s0.2,408.5,0.2,408.5s0.3,18.8-15.5,25c-12.8,5-27.2,3.9-37.8-1.5
				C392.3,458.4,5.8,66.6,5.8,66.6s-11-14.9-2.7-37.5C8.6,14.3,18.4,9.8,30,9.1z"/>
		</g>
		<g class="st1">
			<path class="st0" d="M589,125c-2.1,4.6-5.1,8.4-9,11.6c-3.8,3.1-8.4,5.5-13.7,7.1c-5.3,1.6-11.2,2.5-17.7,2.5
				c-9.1,0-18-1.6-26.7-4.7c-8.7-3.1-16.7-7.9-23.8-14.4l15.5-18.5c5.4,4.4,11,7.9,16.7,10.5c5.7,2.6,12,3.9,18.8,3.9
				c5.4,0,9.7-1,12.7-3c3-2,4.5-4.7,4.5-8.2v-0.3c0-1.7-0.3-3.2-0.9-4.5c-0.6-1.3-1.8-2.5-3.6-3.7c-1.8-1.1-4.2-2.3-7.3-3.4
				c-3.1-1.1-7.2-2.3-12.2-3.6c-6-1.5-11.5-3.1-16.4-4.9c-4.9-1.8-9-4.1-12.4-6.7c-3.4-2.7-6.1-6-7.9-9.9c-1.9-4-2.8-8.9-2.8-14.8
				v-0.3c0-5.4,1-10.3,3-14.7c2-4.4,4.9-8.1,8.5-11.3c3.7-3.2,8-5.6,13.1-7.3c5.1-1.7,10.7-2.5,16.8-2.5c8.7,0,16.7,1.3,24.1,3.9
				c7.3,2.6,14,6.3,20.1,11.2l-13.6,19.7c-5.3-3.6-10.5-6.5-15.6-8.6c-5.1-2.1-10.2-3.1-15.3-3.1s-8.9,1-11.5,3
				c-2.5,2-3.8,4.4-3.8,7.4v0.3c0,1.9,0.4,3.6,1.1,5c0.7,1.4,2.1,2.7,4,3.8c1.9,1.1,4.6,2.2,7.9,3.2c3.4,1,7.6,2.2,12.7,3.6
				c6,1.6,11.4,3.4,16.1,5.4c4.7,2,8.7,4.4,11.9,7.1c3.2,2.8,5.7,6,7.3,9.8s2.5,8.2,2.5,13.4v0.3C592.2,115.2,591.2,120.4,589,125z"
				/>
			<path class="st0" d="M616.2,144.5v-119h26.2v119H616.2z"/>
		</g>
		<g class="st1">
			<path class="st0" d="M755.5,125c-2.1,4.6-5.1,8.4-9,11.6c-3.8,3.1-8.4,5.5-13.7,7.1c-5.3,1.6-11.2,2.5-17.7,2.5
				c-9.1,0-18-1.6-26.7-4.7c-8.7-3.1-16.7-7.9-23.8-14.4l15.5-18.5c5.4,4.4,11,7.9,16.7,10.5c5.7,2.6,12,3.9,18.8,3.9
				c5.4,0,9.7-1,12.7-3c3-2,4.5-4.7,4.5-8.2v-0.3c0-1.7-0.3-3.2-0.9-4.5c-0.6-1.3-1.8-2.5-3.6-3.7c-1.8-1.1-4.2-2.3-7.3-3.4
				c-3.1-1.1-7.2-2.3-12.2-3.6c-6-1.5-11.5-3.1-16.4-4.9c-4.9-1.8-9-4.1-12.4-6.7c-3.4-2.7-6.1-6-7.9-9.9c-1.9-4-2.8-8.9-2.8-14.8
				v-0.3c0-5.4,1-10.3,3-14.7c2-4.4,4.9-8.1,8.5-11.3c3.7-3.2,8-5.6,13.1-7.3c5.1-1.7,10.7-2.5,16.8-2.5c8.7,0,16.7,1.3,24.1,3.9
				c7.3,2.6,14,6.3,20.1,11.2l-13.6,19.7c-5.3-3.6-10.5-6.5-15.6-8.6c-5.1-2.1-10.2-3.1-15.3-3.1s-8.9,1-11.5,3
				c-2.5,2-3.8,4.4-3.8,7.4v0.3c0,1.9,0.4,3.6,1.1,5c0.7,1.4,2.1,2.7,4,3.8c1.9,1.1,4.6,2.2,7.9,3.2c3.4,1,7.6,2.2,12.7,3.6
				c6,1.6,11.4,3.4,16.1,5.4c4.7,2,8.7,4.4,11.9,7.1c3.2,2.8,5.7,6,7.3,9.8s2.5,8.2,2.5,13.4v0.3C758.7,115.2,757.6,120.4,755.5,125
				z"/>
		</g>
		<g class="st1">
			<path class="st0" d="M834,49.6v94.9h-26.2V49.6h-36.2V25.5h98.6v24.1H834z"/>
			<path class="st0" d="M890.2,144.5v-119h89.6v23.3h-63.8v24.1h56.1v23.3h-56.1v25h64.6v23.3H890.2z"/>
			<path class="st0" d="M1097.3,144.5V66.8l-33.5,50.8h-0.7L1030,67.3v77.2h-25.8v-119h28.2l31.3,50.3l31.3-50.3h28.2v119H1097.3z"
				/>
			<path class="st0" d="M1240.3,144.5l-10.9-26.7h-50.3l-10.9,26.7h-26.7l51-119.8h24.1l51,119.8H1240.3z M1204.2,56.1l-15.8,38.6
				h31.6L1204.2,56.1z"/>
		</g>
		<g class="st1">
			<path class="st0" d="M1418.3,125c-2.1,4.6-5.1,8.4-9,11.6c-3.8,3.1-8.4,5.5-13.7,7.1c-5.3,1.6-11.2,2.5-17.7,2.5
				c-9.1,0-18-1.6-26.7-4.7c-8.7-3.1-16.7-7.9-23.8-14.4l15.5-18.5c5.4,4.4,11,7.9,16.7,10.5c5.7,2.6,12,3.9,18.8,3.9
				c5.4,0,9.7-1,12.7-3c3-2,4.5-4.7,4.5-8.2v-0.3c0-1.7-0.3-3.2-0.9-4.5c-0.6-1.3-1.8-2.5-3.6-3.7c-1.8-1.1-4.2-2.3-7.3-3.4
				c-3.1-1.1-7.2-2.3-12.2-3.6c-6-1.5-11.5-3.1-16.4-4.9c-4.9-1.8-9-4.1-12.4-6.7c-3.4-2.7-6.1-6-7.9-9.9c-1.9-4-2.8-8.9-2.8-14.8
				v-0.3c0-5.4,1-10.3,3-14.7c2-4.4,4.9-8.1,8.5-11.3c3.7-3.2,8-5.6,13.1-7.3c5.1-1.7,10.7-2.5,16.8-2.5c8.7,0,16.7,1.3,24.1,3.9
				c7.3,2.6,14,6.3,20.1,11.2l-13.6,19.7c-5.3-3.6-10.5-6.5-15.6-8.6c-5.1-2.1-10.2-3.1-15.3-3.1c-5.1,0-8.9,1-11.5,3
				c-2.5,2-3.8,4.4-3.8,7.4v0.3c0,1.9,0.4,3.6,1.1,5c0.7,1.4,2.1,2.7,4,3.8c1.9,1.1,4.6,2.2,7.9,3.2c3.4,1,7.6,2.2,12.7,3.6
				c6,1.6,11.4,3.4,16.1,5.4c4.7,2,8.7,4.4,11.9,7.1c3.2,2.8,5.7,6,7.3,9.8c1.6,3.7,2.5,8.2,2.5,13.4v0.3
				C1421.5,115.2,1420.4,120.4,1418.3,125z"/>
		</g>
		<g class="st1">
			<path class="st0" d="M1532.3,144.5l-10.9-26.7h-50.3l-10.9,26.7h-26.7l51-119.8h24.1l51,119.8H1532.3z M1496.3,56.1l-15.8,38.6
				h31.6L1496.3,56.1z"/>
		</g>
		<g class="st1">
			<path class="st0" d="M1657.5,141c-8.4,3.7-18.1,5.5-29,5.5c-9.3,0-17.8-1.5-25.4-4.6c-7.7-3.1-14.2-7.3-19.7-12.8
				c-5.5-5.4-9.8-11.9-12.8-19.4c-3.1-7.5-4.6-15.6-4.6-24.5V85c0-8.5,1.6-16.5,4.7-23.9c3.1-7.4,7.5-13.9,13-19.5
				c5.6-5.6,12.1-10,19.7-13.3c7.6-3.2,15.9-4.8,25-4.8c5.3,0,10.2,0.4,14.5,1.1c4.4,0.7,8.4,1.8,12.2,3.1c3.7,1.4,7.3,3.1,10.5,5.1
				c3.3,2,6.5,4.4,9.5,7l-16.5,19.9c-2.3-1.9-4.5-3.6-6.8-5.1c-2.3-1.5-4.6-2.7-7.1-3.7c-2.4-1-5.1-1.8-7.9-2.4
				c-2.8-0.6-6-0.9-9.4-0.9c-4.8,0-9.2,1-13.3,3c-4.1,2-7.8,4.7-10.9,8c-3.1,3.4-5.6,7.3-7.3,11.8c-1.8,4.5-2.6,9.3-2.6,14.4v0.3
				c0,5.5,0.9,10.5,2.6,15.1c1.8,4.6,4.2,8.6,7.5,12c3.2,3.4,7,6,11.4,7.9c4.4,1.9,9.2,2.8,14.5,2.8c9.7,0,18-2.4,24.7-7.2V98.6
				h-26.3V76h51.7v51.7C1673.2,132.9,1666,137.3,1657.5,141z"/>
			<path class="st0" d="M1704.5,144.5v-119h89.6v23.3h-63.8v24.1h56.1v23.3h-56.1v25h64.6v23.3H1704.5z"/>
		</g>
		<g class="st1">
			<path class="st0" d="M570.4,273.3c-2.7,1.7-5.7,3.2-8.8,4.6c-3.2,1.3-6.6,2.3-10.2,3.1c-3.6,0.7-7.5,1.1-11.4,1.1
				c-7.1,0-13.6-1.2-19.4-3.6c-5.8-2.4-10.8-5.7-14.9-9.9c-4.1-4.2-7.3-9.2-9.6-14.9c-2.3-5.7-3.4-11.9-3.4-18.6
				c0-6.4,1.1-12.5,3.4-18.2c2.3-5.7,5.5-10.7,9.7-15c4.2-4.3,9.1-7.7,14.9-10.2c5.8-2.5,12.1-3.8,18.9-3.8c4,0,7.6,0.3,10.9,0.8
				c3.2,0.6,6.3,1.4,9,2.4c2.8,1,5.4,2.3,7.9,3.8c2.5,1.5,4.9,3.3,7.2,5.3l-10.1,12.1c-1.7-1.5-3.5-2.8-5.3-4
				c-1.8-1.2-3.7-2.2-5.7-3.1c-2-0.8-4.2-1.5-6.6-2c-2.4-0.5-5-0.7-7.9-0.7c-4.2,0-8,0.8-11.6,2.5c-3.6,1.7-6.7,4-9.4,7
				c-2.6,3-4.7,6.4-6.2,10.3c-1.5,3.9-2.3,8.1-2.3,12.5c0,4.7,0.7,9,2.2,13c1.5,4,3.6,7.4,6.3,10.4c2.7,2.9,6,5.2,9.8,6.8
				s8,2.5,12.7,2.5c4.3,0,8.4-0.6,12.2-1.9c3.8-1.3,7-2.9,9.8-5v-17.1h-23.3v-13.9h38.7v38.2C575.6,269.8,573.1,271.6,570.4,273.3z"
				/>
			<path class="st0" d="M685,253.1c-2.3,5.7-5.6,10.7-9.9,15c-4.2,4.3-9.3,7.7-15.1,10.2c-5.8,2.5-12.2,3.8-19.2,3.8
				s-13.4-1.2-19.2-3.7c-5.8-2.5-10.8-5.8-14.9-10.1c-4.2-4.2-7.4-9.2-9.8-15c-2.3-5.7-3.5-11.8-3.5-18.2c0-6.4,1.2-12.5,3.5-18.2
				c2.3-5.7,5.6-10.7,9.9-15c4.2-4.3,9.3-7.7,15.1-10.2c5.8-2.5,12.2-3.8,19.2-3.8s13.4,1.2,19.2,3.7c5.8,2.5,10.8,5.8,14.9,10.1
				c4.2,4.2,7.4,9.2,9.8,15c2.3,5.7,3.5,11.8,3.5,18.2C688.5,241.3,687.3,247.3,685,253.1z M669.4,222.6c-1.5-3.9-3.6-7.4-6.4-10.3
				c-2.7-2.9-6-5.3-9.8-7c-3.8-1.7-8-2.6-12.5-2.6c-4.5,0-8.6,0.8-12.4,2.5s-7,4-9.7,6.9c-2.7,2.9-4.8,6.3-6.3,10.3
				c-1.5,3.9-2.3,8.1-2.3,12.5s0.8,8.6,2.3,12.5c1.5,3.9,3.6,7.4,6.4,10.3c2.7,2.9,6,5.3,9.8,7c3.8,1.7,8,2.6,12.5,2.6
				c4.5,0,8.6-0.8,12.4-2.5s7-4,9.7-6.9c2.7-2.9,4.8-6.3,6.3-10.3c1.5-3.9,2.3-8.1,2.3-12.5S670.9,226.5,669.4,222.6z"/>
			<path class="st0" d="M769.1,195.8c5.4,4.2,8,9.9,8,17.1c0,2.8-0.4,5.3-1.1,7.4c-0.7,2.2-1.7,4.1-2.8,5.7c-1.2,1.6-2.5,3-4.1,4.2
				c-1.6,1.2-3.2,2.3-4.8,3.1c2.7,1,5.1,2.1,7.3,3.3c2.2,1.3,4.1,2.7,5.7,4.5c1.6,1.7,2.8,3.8,3.7,6.2c0.9,2.4,1.3,5.1,1.3,8.2
				c0,4.1-0.8,7.7-2.4,10.8c-1.6,3.1-3.9,5.7-6.8,7.9c-2.9,2.1-6.5,3.7-10.6,4.8c-4.2,1.1-8.7,1.6-13.8,1.6h-42v-91h40.7
				C756.5,189.5,763.7,191.6,769.1,195.8z M756.6,224.9c3.1-2,4.7-5.2,4.7-9.5c0-3.7-1.4-6.6-4.1-8.7s-6.7-3.1-11.9-3.1h-22.9V228
				h21.8C749.3,228,753.5,227,756.6,224.9z M761.7,263.1c3.1-2.1,4.7-5.3,4.7-9.4c0-3.9-1.5-6.9-4.6-9.1c-3.1-2.2-7.8-3.2-14.1-3.2
				h-25.3v25h26.4C754.3,266.3,758.6,265.3,761.7,263.1z"/>
			<path class="st0" d="M815.9,189.5v91H800v-91H815.9z"/>
			<path class="st0" d="M906.3,203.9h-51.5v23.4h45.6v14.4h-45.6v24.3H907v14.4h-68v-91h67.3V203.9z"/>
			<path class="st0" d="M983.2,280.5l-22.4-31.7h-20.1v31.7h-15.9v-91h40.6c5.2,0,9.9,0.7,14.1,2c4.2,1.3,7.8,3.2,10.7,5.7
				c2.9,2.5,5.1,5.5,6.7,9.1c1.6,3.6,2.3,7.6,2.3,12c0,3.8-0.5,7.2-1.6,10.2c-1.1,3-2.6,5.6-4.5,7.9c-1.9,2.3-4.2,4.2-6.8,5.8
				c-2.6,1.6-5.6,2.8-8.8,3.7l24.6,34.5H983.2z M978,207.8c-3.3-2.6-8-3.9-14-3.9h-23.3v30.7h23.5c5.7,0,10.3-1.4,13.7-4.2
				c3.4-2.8,5.1-6.5,5.1-11.2C982.9,214.2,981.3,210.3,978,207.8z"/>
			<path class="st0" d="M1080.9,189.5h15.9v91h-13.4l-50.1-64.7v64.7h-15.9v-91h14.8l48.7,62.9V189.5z"/>
			<path class="st0" d="M1206.5,253.1c-2.3,5.7-5.6,10.7-9.9,15c-4.2,4.3-9.3,7.7-15.1,10.2c-5.8,2.5-12.2,3.8-19.2,3.8
				c-7,0-13.4-1.2-19.2-3.7c-5.8-2.5-10.8-5.8-15-10.1c-4.2-4.2-7.4-9.2-9.8-15s-3.5-11.8-3.5-18.2c0-6.4,1.2-12.5,3.5-18.2
				c2.3-5.7,5.6-10.7,9.9-15c4.2-4.3,9.3-7.7,15.1-10.2c5.8-2.5,12.2-3.8,19.2-3.8c7,0,13.4,1.2,19.2,3.7c5.8,2.5,10.8,5.8,15,10.1
				c4.2,4.2,7.4,9.2,9.8,15s3.5,11.8,3.5,18.2C1210,241.3,1208.9,247.3,1206.5,253.1z M1191,222.6c-1.5-3.9-3.6-7.4-6.4-10.3
				c-2.7-2.9-6-5.3-9.8-7c-3.8-1.7-8-2.6-12.5-2.6c-4.5,0-8.6,0.8-12.4,2.5c-3.8,1.7-7,4-9.7,6.9c-2.7,2.9-4.8,6.3-6.3,10.3
				c-1.5,3.9-2.3,8.1-2.3,12.5s0.8,8.6,2.3,12.5c1.5,3.9,3.6,7.4,6.4,10.3c2.7,2.9,6,5.3,9.8,7c3.8,1.7,8,2.6,12.5,2.6
				c4.5,0,8.6-0.8,12.4-2.5c3.8-1.7,7-4,9.7-6.9c2.7-2.9,4.8-6.3,6.3-10.3c1.5-3.9,2.3-8.1,2.3-12.5S1192.5,226.5,1191,222.6z"/>
			<path class="st0" d="M1344.6,252.9c-2.3,5.6-5.7,10.4-9.9,14.5c-4.3,4.1-9.4,7.3-15.3,9.6c-5.9,2.3-12.5,3.5-19.6,3.5h-33.9v-91
				h33.9c7.1,0,13.6,1.1,19.6,3.4c5.9,2.3,11,5.5,15.3,9.6c4.3,4.1,7.6,8.9,9.9,14.4c2.3,5.5,3.5,11.5,3.5,17.9
				C1348.1,241.3,1346.9,247.3,1344.6,252.9z M1329,222.7c-1.5-3.8-3.6-7.1-6.4-9.9c-2.7-2.8-6.1-5-10-6.5c-3.9-1.6-8.3-2.4-13-2.4
				h-18v62.1h18c4.8,0,9.1-0.8,13-2.3c3.9-1.5,7.2-3.7,10-6.4c2.7-2.7,4.9-6,6.4-9.8c1.5-3.8,2.3-7.9,2.3-12.5
				S1330.5,226.5,1329,222.7z"/>
			<path class="st0" d="M1433.5,203.9H1382v23.4h45.6v14.4H1382v24.3h52.1v14.4h-68v-91h67.3V203.9z"/>
		</g>
		<g class="st1">
			<path class="st0" d="M508.2,449.1v-140H539v112.2h69.8v27.8H508.2z"/>
			<path class="st0" d="M736.2,449.1l-12.8-31.4h-59.2l-12.8,31.4H620l60-141h28.4l60,141H736.2z M693.8,345.1l-18.6,45.4h37.2
				L693.8,345.1z"/>
			<path class="st0" d="M935,449.1l-30-44.8h-24.2v44.8H850v-140h64c16.7,0,29.6,4.1,38.9,12.2c9.3,8.1,13.9,19.5,13.9,34v0.4
				c0,11.3-2.8,20.6-8.3,27.7c-5.5,7.1-12.8,12.4-21.7,15.7l34.2,50H935z M935.6,356.9c0-6.7-2.1-11.7-6.4-15
				c-4.3-3.3-10.2-5-17.8-5h-30.6v40.2H912c7.6,0,13.4-1.8,17.5-5.4c4.1-3.6,6.1-8.4,6.1-14.4V356.9z"/>
			<path class="st0" d="M996,449.1v-140h30.8v140H996z"/>
		</g>
		<g class="st1">
			<path class="st0" d="M1192,407.2c-3.7,8.7-8.9,16.4-15.5,23c-6.6,6.6-14.5,11.8-23.6,15.6c-9.1,3.8-19.1,5.7-29.9,5.7
				s-20.7-1.9-29.8-5.7c-9.1-3.8-16.9-8.9-23.5-15.4c-6.6-6.5-11.7-14.1-15.4-22.8c-3.7-8.7-5.5-18.1-5.5-28.1v-0.4
				c0-10,1.9-19.4,5.6-28.1c3.7-8.7,8.9-16.4,15.5-23c6.6-6.6,14.5-11.8,23.6-15.6c9.1-3.8,19.1-5.7,29.9-5.7
				c10.8,0,20.7,1.9,29.8,5.7c9.1,3.8,16.9,8.9,23.5,15.4c6.6,6.5,11.7,14.1,15.4,22.8c3.7,8.7,5.5,18.1,5.5,28.1v0.4
				C1197.6,389.1,1195.7,398.5,1192,407.2z M1165.4,379.1c0-6-1-11.7-3.1-17c-2.1-5.3-5-10-8.8-14s-8.3-7.2-13.5-9.5
				c-5.2-2.3-10.9-3.5-17-3.5c-6.3,0-12,1.1-17.1,3.4c-5.1,2.3-9.5,5.4-13.2,9.4c-3.7,4-6.5,8.6-8.6,13.9
				c-2.1,5.3-3.1,10.9-3.1,16.9v0.4c0,6,1,11.7,3.1,17c2.1,5.3,5,10,8.8,14c3.8,4,8.3,7.2,13.4,9.5c5.1,2.3,10.8,3.5,17.1,3.5
				c6.1,0,11.8-1.1,17-3.4c5.2-2.3,9.6-5.4,13.3-9.4c3.7-4,6.5-8.6,8.6-13.9c2.1-5.3,3.1-10.9,3.1-16.9V379.1z"/>
		</g>
		<g class="st1">
			<path class="st0" d="M1293,422.9c-2.4,6.3-5.8,11.5-10.1,15.7c-4.3,4.2-9.6,7.3-15.7,9.4c-6.1,2.1-12.9,3.1-20.2,3.1
				c-10.9,0-20.1-2.1-27.5-6.2c-7.4-4.1-13.5-9.1-18.3-14.8l19.4-21.6c4,4.4,8,7.8,12.1,10.3c4.1,2.5,8.6,3.7,13.5,3.7
				c5.9,0,10.5-1.8,13.8-5.5c3.3-3.7,5-9.6,5-17.7v-90.2h31.6v91.6C1296.6,409.2,1295.4,416.6,1293,422.9z"/>
		</g>
		<g class="st1">
			<path class="st0" d="M1427.2,449.1l-12.8-31.4h-59.2l-12.8,31.4H1311l60-141h28.4l60,141H1427.2z M1384.8,345.1l-18.6,45.4h37.2
				L1384.8,345.1z"/>
		</g>
	</g>
</g>
</svg>
