<?xml version="1.0" encoding="utf-8"?>
<!-- Generator: Adobe Illustrator 25.2.3, SVG Export Plug-In . SVG Version: 6.00 Build 0)  -->
<svg version="1.1" id="Capa_1" xmlns="http://www.w3.org/2000/svg" xmlns:xlink="http://www.w3.org/1999/xlink" x="0px" y="0px"
	 viewBox="0 0 1192.3 308.2" style="enable-background:new 0 0 1192.3 308.2;" xml:space="preserve">
<style type="text/css">
	.st0{enable-background:new    ;}
	.st1{fill:#FFFFFF;}
</style>
<g id="Capa_2_1_">
	<g id="Capa_1-2">
		<g id="Capa_2-2">
			<g class="st0">
				<path class="st1" d="M15.1,277.1v-126H110v24.7H42.5v25.6h59.4V226H42.5v26.5h68.4v24.7H15.1z"/>
				<path class="st1" d="M247,238.9c-3.2,7.7-7.8,14.3-13.8,20c-5.9,5.6-13,10.1-21.2,13.3c-8.2,3.2-17.3,4.9-27.1,4.9h-49.1v-126
					h49.1c9.8,0,18.9,1.6,27.1,4.8c8.2,3.2,15.3,7.6,21.2,13.2c5.9,5.6,10.5,12.3,13.8,19.9c3.2,7.6,4.9,15.9,4.9,24.8v0.4
					C251.8,223,250.2,231.3,247,238.9z M222.8,214.1c0-5.5-0.9-10.6-2.8-15.3c-1.9-4.7-4.4-8.7-7.7-12.1c-3.3-3.4-7.3-6-12-7.8
					c-4.7-1.9-9.8-2.8-15.5-2.8h-21.4v76h21.4c5.6,0,10.8-0.9,15.5-2.7c4.7-1.8,8.7-4.4,12-7.7c3.3-3.4,5.9-7.3,7.7-11.9
					c1.9-4.6,2.8-9.7,2.8-15.3V214.1z"/>
				<path class="st1" d="M380.4,247.2c-2.6,7.1-6.3,13-11.1,17.7c-4.8,4.7-10.6,8.3-17.5,10.6s-14.5,3.5-22.9,3.5
					c-16.9,0-30.2-4.7-40-14c-9.7-9.4-14.6-23.3-14.6-41.9v-72h27.7v71.3c0,10.3,2.4,18.1,7.2,23.3c4.8,5.2,11.5,7.8,20,7.8
					c8.5,0,15.2-2.5,20-7.6c4.8-5,7.2-12.6,7.2-22.7v-72.2h27.7v71.1C384.3,231.8,383,240.1,380.4,247.2z"/>
			</g>
			<g class="st0">
				<path class="st1" d="M510.5,266.1c-3.5,2.8-7.3,5.1-11.4,7.1c-4.1,2-8.7,3.5-13.6,4.5c-4.9,1-10.4,1.5-16.6,1.5
					c-9.2,0-17.8-1.7-25.7-5s-14.8-7.9-20.5-13.8c-5.8-5.8-10.3-12.7-13.5-20.6c-3.2-7.9-4.9-16.4-4.9-25.4v-0.4
					c0-9,1.6-17.4,4.9-25.3c3.2-7.9,7.7-14.8,13.5-20.7c5.8-5.9,12.7-10.6,20.7-14c8-3.4,16.9-5.1,26.6-5.1c5.9,0,11.2,0.5,16.1,1.4
					c4.9,1,9.3,2.3,13.2,4c4,1.7,7.6,3.7,11,6.1c3.4,2.4,6.5,5,9.4,7.9L502,188.7c-4.9-4.4-9.9-7.9-15-10.4
					c-5.1-2.5-10.8-3.8-17.2-3.8c-5.3,0-10.2,1-14.7,3.1c-4.5,2-8.4,4.9-11.6,8.5c-3.2,3.6-5.8,7.8-7.6,12.5
					c-1.8,4.7-2.7,9.8-2.7,15.2v0.4c0,5.4,0.9,10.5,2.7,15.3c1.8,4.8,4.3,9,7.5,12.6c3.2,3.6,7,6.5,11.5,8.5
					c4.5,2.1,9.5,3.1,14.8,3.1c7.2,0,13.3-1.3,18.3-4c5-2.6,9.9-6.2,14.8-10.8l17.6,17.8C517.3,260.2,514,263.4,510.5,266.1z"/>
			</g>
			<g class="st0">
				<path class="st1" d="M634.1,277.1l-11.5-28.3h-53.3l-11.5,28.3h-28.3l54-126.9h25.6l54,126.9H634.1z M596,183.5l-16.7,40.9h33.5
					L596,183.5z"/>
			</g>
			<g class="st0">
				<path class="st1" d="M776.2,266.1c-3.5,2.8-7.3,5.1-11.4,7.1c-4.1,2-8.7,3.5-13.6,4.5c-4.9,1-10.4,1.5-16.6,1.5
					c-9.2,0-17.8-1.7-25.7-5s-14.8-7.9-20.5-13.8c-5.8-5.8-10.3-12.7-13.5-20.6s-4.9-16.4-4.9-25.4v-0.4c0-9,1.6-17.4,4.9-25.3
					c3.2-7.9,7.7-14.8,13.5-20.7c5.8-5.9,12.7-10.6,20.7-14c8-3.4,16.9-5.1,26.6-5.1c5.9,0,11.2,0.5,16.1,1.4c4.9,1,9.3,2.3,13.2,4
					c4,1.7,7.6,3.7,11,6.1c3.4,2.4,6.5,5,9.4,7.9l-17.6,20.3c-4.9-4.4-9.9-7.9-15-10.4c-5.1-2.5-10.8-3.8-17.2-3.8
					c-5.3,0-10.2,1-14.7,3.1c-4.5,2-8.4,4.9-11.6,8.5s-5.8,7.8-7.6,12.5c-1.8,4.7-2.7,9.8-2.7,15.2v0.4c0,5.4,0.9,10.5,2.7,15.3
					c1.8,4.8,4.3,9,7.5,12.6c3.2,3.6,7,6.5,11.5,8.5c4.5,2.1,9.5,3.1,14.9,3.1c7.2,0,13.3-1.3,18.3-4c5-2.6,9.9-6.2,14.9-10.8
					l17.6,17.8C783,260.2,779.6,263.4,776.2,266.1z"/>
				<path class="st1" d="M809.6,277.1v-126h27.7v126H809.6z"/>
				<path class="st1" d="M992.2,239.4c-3.4,7.9-8,14.8-14,20.7c-5.9,5.9-13,10.6-21.2,14c-8.2,3.4-17.2,5.1-26.9,5.1
					s-18.7-1.7-26.8-5.1c-8.2-3.4-15.2-8-21.1-13.9c-5.9-5.8-10.6-12.7-13.9-20.5c-3.3-7.9-5-16.3-5-25.3v-0.4c0-9,1.7-17.4,5-25.3
					c3.4-7.9,8-14.8,14-20.7c5.9-5.9,13-10.6,21.2-14c8.2-3.4,17.2-5.1,26.9-5.1c9.7,0,18.7,1.7,26.8,5.1c8.2,3.4,15.2,8,21.2,13.9
					c5.9,5.8,10.6,12.7,13.9,20.5c3.3,7.9,5,16.3,5,25.3v0.4C997.2,223.1,995.5,231.5,992.2,239.4z M968.2,214.1
					c0-5.4-0.9-10.5-2.8-15.3c-1.9-4.8-4.5-9-7.9-12.6c-3.4-3.6-7.5-6.4-12.2-8.5c-4.7-2.1-9.8-3.1-15.3-3.1c-5.6,0-10.8,1-15.4,3.1
					c-4.6,2-8.6,4.9-11.9,8.5c-3.3,3.6-5.9,7.8-7.7,12.5c-1.9,4.7-2.8,9.8-2.8,15.2v0.4c0,5.4,0.9,10.5,2.8,15.3
					c1.9,4.8,4.5,9,7.9,12.6c3.4,3.6,7.4,6.5,12.1,8.5c4.6,2.1,9.7,3.1,15.4,3.1c5.5,0,10.6-1,15.3-3.1c4.7-2,8.7-4.9,12-8.5
					c3.3-3.6,5.9-7.8,7.7-12.5c1.9-4.7,2.8-9.8,2.8-15.2V214.1z M920.5,141.2l20.3-31.9l23.6,10.3l-23,21.6H920.5z"/>
				<path class="st1" d="M1110.2,277.1l-61-80.1v80.1h-27.4v-126h25.6l59,77.6v-77.6h27.4v126H1110.2z"/>
			</g>
			<g class="st0">
				<path class="st1" d="M56.5,88.1H56L27.6,45.5v65H11.7v-91h17l27.7,43l27.7-43h17v91H85.3V45.2L56.5,88.1z"/>
				<path class="st1" d="M141.3,19.5v91h-15.9v-91H141.3z"/>
				<path class="st1" d="M229.2,19.5H245v91h-13.4l-50.1-64.7v64.7h-15.9v-91h14.8l48.7,62.9V19.5z"/>
				<path class="st1" d="M285.2,19.5v91h-15.9v-91H285.2z"/>
			</g>
			<g class="st0">
				<path class="st1" d="M324,48c0.6,1.3,1.7,2.5,3.3,3.6c1.6,1.1,3.8,2.2,6.6,3.1c2.8,1,6.4,1.9,10.8,3c4.8,1.2,9,2.6,12.7,4
					c3.7,1.5,6.8,3.3,9.2,5.4c2.4,2.1,4.3,4.6,5.5,7.4c1.3,2.8,1.9,6.1,1.9,9.9c0,4.3-0.8,8.2-2.4,11.6c-1.6,3.4-3.8,6.2-6.6,8.6
					c-2.8,2.3-6.2,4.1-10.2,5.3c-4,1.2-8.4,1.8-13.1,1.8c-7,0-13.7-1.2-20.2-3.6c-6.4-2.4-12.3-6-17.8-11l9.6-11.4
					c4.4,3.8,8.9,6.7,13.4,8.8c4.5,2,9.6,3.1,15.3,3.1c4.9,0,8.9-1,11.8-3.1c2.9-2.1,4.4-4.9,4.4-8.5c0-1.6-0.3-3.1-0.8-4.4
					c-0.6-1.3-1.6-2.5-3.1-3.6c-1.5-1.1-3.6-2.1-6.3-3.1c-2.7-1-6.1-2-10.4-3c-4.9-1.1-9.2-2.4-13-3.8c-3.8-1.4-7-3.1-9.5-5.2
					s-4.5-4.6-5.9-7.5c-1.3-2.9-2-6.5-2-10.8c0-4,0.8-7.6,2.3-10.9s3.7-6,6.4-8.4c2.7-2.3,6-4.1,9.8-5.4c3.8-1.3,8-1.9,12.5-1.9
					c6.7,0,12.7,1,18,2.9c5.3,2,10.3,4.8,15,8.5l-8.6,12.1c-4.2-3-8.3-5.4-12.4-7c-4.1-1.6-8.2-2.4-12.3-2.4
					c-4.7,0-8.3,1.1-10.9,3.2c-2.6,2.1-3.9,4.7-3.9,7.7C323,45.1,323.4,46.7,324,48z"/>
			</g>
			<g class="st0">
				<path class="st1" d="M429.4,110.5h-16.1V34.3h-28.9V19.5h73.8v14.8h-28.9V110.5z"/>
				<path class="st1" d="M542.5,33.9H491v23.4h45.6v14.4H491v24.3h52.1v14.4h-68v-91h67.3V33.9z"/>
				<path class="st1" d="M620.6,110.5l-22.4-31.7h-20.1v31.7h-15.9v-91h40.6c5.2,0,9.9,0.7,14.1,2c4.2,1.3,7.8,3.2,10.7,5.7
					c2.9,2.5,5.1,5.5,6.7,9.1c1.6,3.6,2.3,7.6,2.3,12c0,3.8-0.5,7.2-1.6,10.2c-1.1,3-2.6,5.6-4.5,7.9c-1.9,2.3-4.2,4.2-6.8,5.8
					c-2.6,1.6-5.6,2.8-8.8,3.7l24.6,34.5H620.6z M615.4,37.8c-3.3-2.6-8-3.9-14-3.9h-23.3v30.7h23.5c5.7,0,10.3-1.4,13.7-4.2
					c3.4-2.8,5.1-6.5,5.1-11.2C620.4,44.2,618.7,40.3,615.4,37.8z"/>
				<path class="st1" d="M673,19.5v91h-15.9v-91H673z"/>
				<path class="st1" d="M785.1,83.1c-2.3,5.7-5.6,10.7-9.9,15c-4.2,4.3-9.3,7.7-15.1,10.2c-5.8,2.5-12.2,3.8-19.2,3.8
					c-7,0-13.4-1.2-19.2-3.7c-5.8-2.5-10.8-5.8-15-10.1c-4.2-4.2-7.4-9.2-9.8-15s-3.5-11.8-3.5-18.2c0-6.4,1.2-12.5,3.5-18.2
					c2.3-5.7,5.6-10.7,9.9-15c4.2-4.3,9.3-7.7,15.1-10.2c5.8-2.5,12.2-3.8,19.2-3.8c7,0,13.4,1.2,19.2,3.7c5.8,2.5,10.8,5.8,15,10.1
					c4.2,4.2,7.4,9.2,9.8,15s3.5,11.8,3.5,18.2C788.6,71.3,787.4,77.3,785.1,83.1z M769.5,52.6c-1.5-3.9-3.6-7.4-6.4-10.3
					c-2.7-2.9-6-5.3-9.8-7c-3.8-1.7-8-2.6-12.5-2.6c-4.5,0-8.6,0.8-12.4,2.5c-3.8,1.7-7,4-9.7,6.9c-2.7,2.9-4.8,6.3-6.3,10.3
					c-1.5,3.9-2.3,8.1-2.3,12.5s0.8,8.6,2.3,12.5c1.5,3.9,3.6,7.4,6.4,10.3c2.7,2.9,6,5.3,9.8,7c3.8,1.7,8,2.6,12.5,2.6
					c4.5,0,8.6-0.8,12.4-2.5c3.8-1.7,7-4,9.7-6.9c2.7-2.9,4.8-6.3,6.3-10.3c1.5-3.9,2.3-8.1,2.3-12.5S771,56.5,769.5,52.6z"/>
				<path class="st1" d="M925.7,82.9c-2.3,5.6-5.7,10.4-9.9,14.5c-4.3,4.1-9.4,7.3-15.3,9.6c-5.9,2.3-12.5,3.5-19.6,3.5h-33.9v-91
					h33.9c7.1,0,13.6,1.1,19.6,3.4c5.9,2.3,11,5.5,15.3,9.6c4.3,4.1,7.6,8.9,9.9,14.4c2.3,5.5,3.5,11.5,3.5,17.9
					C929.2,71.3,928.1,77.3,925.7,82.9z M910.2,52.7c-1.5-3.8-3.6-7.1-6.4-9.9c-2.7-2.8-6.1-5-10-6.5c-3.9-1.6-8.3-2.4-13-2.4h-18
					v62.1h18c4.8,0,9.1-0.8,13-2.3c3.9-1.5,7.2-3.7,10-6.4c2.7-2.7,4.9-6,6.4-9.8c1.5-3.8,2.3-7.9,2.3-12.5S911.7,56.5,910.2,52.7z"
					/>
				<path class="st1" d="M1015.9,33.9h-51.5v23.4h45.6v14.4h-45.6v24.3h52.1v14.4h-68v-91h67.3V33.9z"/>
			</g>
		</g>
	</g>
</g>
</svg>
